<svg viewBox="0 0 100 100" xmlns="http://www.w3.org/2000/svg" xmlns:svg="http://www.w3.org/2000/svg">
 <g class="layer">
  <title>Layer 1</title>
  <g id="svg_20">
   <g id="svg_7">
    <rect fill="#c5f74f" height="7.56" id="svg_1" stroke="#000000" stroke-width="0" transform="rotate(-59.8105, 20.399, 57.3921)" width="37.05" x="1.87" y="53.61"/>
    <circle cx="29.59" cy="41.69" fill="#c5f74f" id="svg_5" r="3.79" stroke="#000000" stroke-dasharray="null" stroke-linecap="null" stroke-linejoin="null" stroke-opacity="null" stroke-width="0" transform="rotate(30.129, 29.5947, 41.6917)"/>
    <circle cx="11.19" cy="73.19" fill="#c5f74f" id="svg_6" r="3.79" stroke="#000000" stroke-dasharray="null" stroke-linecap="null" stroke-linejoin="null" stroke-opacity="null" stroke-width="0" transform="rotate(30.129, 11.1897, 73.1867)"/>
   </g>
   <g id="svg_8">
    <rect fill="#c5f74f" height="7.56" id="svg_9" stroke="#000000" stroke-width="0" transform="rotate(-59.8105, 45.399, 42.3871)" width="37.05" x="26.87" y="38.61"/>
    <circle cx="54.59" cy="26.69" fill="#c5f74f" id="svg_10" r="3.79" stroke="#000000" stroke-dasharray="null" stroke-linecap="null" stroke-linejoin="null" stroke-opacity="null" stroke-width="0" transform="rotate(30.129, 54.5947, 26.6867)"/>
    <circle cx="36.19" cy="58.18" fill="#c5f74f" id="svg_11" r="3.79" stroke="#000000" stroke-dasharray="null" stroke-linecap="null" stroke-linejoin="null" stroke-opacity="null" stroke-width="0" transform="rotate(30.129, 36.1897, 58.1817)"/>
   </g>
   <g id="svg_12">
    <rect fill="#c5f74f" height="7.56" id="svg_13" stroke="#000000" stroke-width="0" transform="rotate(-59.8105, 55.399, 57.3871)" width="37.05" x="36.87" y="53.61"/>
    <circle cx="64.59" cy="41.69" fill="#c5f74f" id="svg_14" r="3.79" stroke="#000000" stroke-dasharray="null" stroke-linecap="null" stroke-linejoin="null" stroke-opacity="null" stroke-width="0" transform="rotate(30.129, 64.5947, 41.6867)"/>
    <circle cx="46.19" cy="73.18" fill="#c5f74f" id="svg_15" r="3.79" stroke="#000000" stroke-dasharray="null" stroke-linecap="null" stroke-linejoin="null" stroke-opacity="null" stroke-width="0" transform="rotate(30.129, 46.1897, 73.1817)"/>
   </g>
   <g id="svg_16">
    <rect fill="#c5f74f" height="7.56" id="svg_17" stroke="#000000" stroke-width="0" transform="rotate(-59.8105, 80.399, 42.3871)" width="37.05" x="61.87" y="38.61"/>
    <circle cx="89.59" cy="26.69" fill="#c5f74f" id="svg_18" r="3.79" stroke="#000000" stroke-dasharray="null" stroke-linecap="null" stroke-linejoin="null" stroke-opacity="null" stroke-width="0" transform="rotate(30.129, 89.5947, 26.6867)"/>
    <circle cx="71.19" cy="58.18" fill="#c5f74f" id="svg_19" r="3.79" stroke="#000000" stroke-dasharray="null" stroke-linecap="null" stroke-linejoin="null" stroke-opacity="null" stroke-width="0" transform="rotate(30.129, 71.1897, 58.1817)"/>
   </g>
  </g>
 </g>
</svg>