<svg width="100" height="100" xmlns="http://www.w3.org/2000/svg" version="1.1">

 <g>
  <title>Layer 1</title>
  <g id="bg">
   <rect y="0.26316" id="svg_1" fill="#2F2F2F" height="100" width="100" class="st0" x="-0.03684"/>
  </g>
  <g id="svg_4" enable-background="new" class="st7">
   <path id="svg_5" fill="#FFFFFF" d="m7.63684,59.8221l0,-19.13175l5.29539,0c6.74736,0 10.07833,3.07475 10.07833,9.30965c0,2.98934 -0.93951,5.29539 -2.81852,7.089c-1.87901,1.7936 -4.35589,2.6477 -7.51604,2.6477l-5.03917,0.08541l0,0zm2.22065,-17.08192l0,15.1175l2.81852,0c2.47688,0 4.4413,-0.68328 5.89326,-2.04983c1.36655,-1.36655 2.13524,-3.24556 2.13524,-5.72244c0,-4.86835 -2.6477,-7.34523 -7.85768,-7.34523c0,0 -2.98934,0 -2.98934,0z" class="st4"/>
   <path id="svg_6" fill="#FFFFFF" d="m27.62269,42.74019c-0.42705,0 -0.68328,-0.17082 -1.02492,-0.42705c-0.25623,-0.25623 -0.42705,-0.59787 -0.42705,-1.02492s0.17082,-0.76869 0.42705,-1.02492s0.59787,-0.42705 1.02492,-0.42705s0.76869,0.17082 1.02492,0.42705c0.25623,0.25623 0.42705,0.59787 0.42705,1.02492s-0.17082,0.68328 -0.42705,1.02492c-0.25623,0.25623 -0.59787,0.42705 -1.02492,0.42705zm1.11032,17.08192l-2.22065,0l0,-13.66553l2.22065,0l0,13.66553z" class="st4"/>
   <path id="svg_7" fill="#FFFFFF" d="m40.26331,48.37722c-0.34164,-0.25623 -0.93951,-0.42705 -1.62278,-0.42705c-0.93951,0 -1.70819,0.42705 -2.30606,1.28114s-0.93951,2.04983 -0.93951,3.5872l0,7.00359l-2.22065,0l0,-13.66553l2.22065,0l0,2.81852l0.08541,0c0.34164,-0.93951 0.76869,-1.70819 1.45196,-2.22065c0.68328,-0.51246 1.36655,-0.76869 2.13524,-0.76869c0.59787,0 1.02492,0.08541 1.28114,0.17082l0,2.22065l-0.08541,0z" class="st4"/>
   <path id="svg_8" fill="#FFFFFF" d="m53.5872,53.5872l-9.65128,0c0,1.53737 0.42705,2.73311 1.19573,3.50179c0.76869,0.8541 1.87901,1.28114 3.24556,1.28114c1.53737,0 2.98934,-0.51246 4.27048,-1.53737l0,2.04983c-1.19573,0.8541 -2.81852,1.28114 -4.78294,1.28114s-3.41638,-0.59787 -4.52671,-1.87901s-1.62278,-2.98934 -1.62278,-5.20999c0,-2.13524 0.59787,-3.84343 1.7936,-5.20999c1.19573,-1.36655 2.73311,-2.04983 4.52671,-2.04983s3.16015,0.59787 4.18507,1.70819c0.93951,1.19573 1.45196,2.73311 1.45196,4.78294l-0.08541,1.28114l0,0zm-2.22065,-1.87901c0,-1.28114 -0.34164,-2.22065 -0.93951,-2.98934c-0.59787,-0.68328 -1.45196,-1.02492 -2.47688,-1.02492s-1.87901,0.34164 -2.6477,1.11032c-0.68328,0.76869 -1.19573,1.70819 -1.36655,2.90393l7.43063,0z" class="st4"/>
   <path id="svg_9" fill="#FFFFFF" d="m66.22782,59.22424c-1.02492,0.59787 -2.30606,0.93951 -3.75802,0.93951c-1.96442,0 -3.50179,-0.59787 -4.69753,-1.87901s-1.7936,-2.90393 -1.7936,-4.95376c0,-2.22065 0.68328,-4.09966 1.96442,-5.46621c1.28114,-1.36655 2.98934,-2.04983 5.12458,-2.04983c1.19573,0 2.22065,0.25623 3.16015,0.68328l0,2.22065c-1.02492,-0.68328 -2.13524,-1.11032 -3.24556,-1.11032c-1.36655,0 -2.56229,0.51246 -3.41638,1.53737s-1.36655,2.30606 -1.36655,3.92884c0,1.62278 0.42705,2.90393 1.28114,3.75802c0.8541,0.93951 1.96442,1.36655 3.41638,1.36655c1.19573,0 2.30606,-0.42705 3.33097,-1.19573l0,2.22065l0,0z" class="st4"/>
   <path id="svg_10" fill="#FFFFFF" d="m75.87911,59.7367c-0.51246,0.25623 -1.19573,0.42705 -2.04983,0.42705c-2.39147,0 -3.5872,-1.36655 -3.5872,-4.01425l0,-8.11391l-2.39147,0l0,-1.87901l2.39147,0l0,-3.33097l2.22065,-0.68328l0,4.01425l3.41638,0l0,1.87901l-3.41638,0l0,7.68686c0,0.93951 0.17082,1.53737 0.42705,1.96442c0.34164,0.42705 0.8541,0.59787 1.53737,0.59787c0.51246,0 1.02492,-0.17082 1.45196,-0.42705l0,1.87901l0,0z" class="st4"/>
   <path id="svg_11" fill="#FFFFFF" d="m92.36316,59.8221l-2.73311,0l-4.4413,-7.34523c-0.17082,-0.25623 -0.25623,-0.51246 -0.42705,-0.93951l-0.08541,0c-0.08541,0.17082 -0.25623,0.51246 -0.42705,0.93951l-4.52671,7.34523l-2.73311,0l6.40572,-9.65128l-5.89326,-9.48046l2.73311,0l3.92884,6.74736c0.25623,0.42705 0.51246,0.8541 0.68328,1.36655l0.08541,0c0.25623,-0.59787 0.51246,-1.02492 0.76869,-1.36655l4.09966,-6.66195l2.56229,0l-5.97867,9.48046l5.97867,9.56587z" class="st4"/>
  </g>
 </g>
</svg>