<svg viewBox="0 0 100 100" xmlns="http://www.w3.org/2000/svg" xmlns:svg="http://www.w3.org/2000/svg">
 <defs>
  <linearGradient id="paint0_linear_128_61" x1="0.09" x2="0.47" y1="0.58" y2="0.09">
   <stop stop-color="#45FFC8"/>
   <stop offset="1" stop-color="#1DBBF1"/>
  </linearGradient>
  <linearGradient id="paint1_linear_128_61" x1="0.24" x2="0.79" y1="0.56" y2="0.8">
   <stop stop-color="#D14AE8"/>
   <stop offset="0.55" stop-color="#B628E3"/>
   <stop offset="1" stop-color="#8315FD"/>
  </linearGradient>
  <linearGradient id="paint2_linear_128_61" x1="0.5" x2="0.5" y1="0.09" y2="0.79">
   <stop stop-color="#20ABF5"/>
   <stop offset="0.4" stop-color="#2A8CC3"/>
   <stop offset="1" stop-color="#A104DC"/>
  </linearGradient>
  <linearGradient id="paint3_linear_128_61" x1="0.3" x2="0.93" y1="0.29" y2="0.93">
   <stop stop-color="#FE5B01"/>
   <stop offset="1" stop-color="#FFB200"/>
  </linearGradient>
 </defs>
 <g class="layer">
  <title>Layer 1</title>
  <g id="svg_6">
   <path clip-rule="evenodd" d="m94.37,15.87l-74.73,56.84c-9.18,-16.64 -12.35,-36.71 -12.6,-48.74l0,-7.37c0,-1.07 1.17,-1.69 1.74,-1.88c12.3,-3.71 37.28,-11.22 38.77,-11.66c1.51,-0.42 2.77,-0.54 3.22,-0.54l0.03,0c0.45,0 1.71,0.12 3.22,0.54c1.51,0.42 26.48,7.95 38.77,11.66c0.42,0.13 1.19,0.5 1.54,1.14l0.02,0l0.02,0.01z" fill="url(#paint0_linear_128_61)" fill-rule="evenodd" id="svg_1"/>
   <path clip-rule="evenodd" d="m19.66,72.8l74.73,-56.84c0.12,0.22 0.2,0.45 0.2,0.74l0,7.37c-0.4,20.4 -9.26,63.89 -41.46,74.61c-0.45,0.17 -1.51,0.54 -2.15,0.54l-0.3,0c-0.64,0 -1.69,-0.35 -2.15,-0.54c-13.2,-4.4 -22.48,-14.29 -28.87,-25.87l-0.02,0l0.02,0l0,-0.01z" fill="url(#paint1_linear_128_61)" fill-rule="evenodd" id="svg_2"/>
   <path d="m48.8,2.65c-1.51,-0.42 -2.77,-0.54 -3.22,-0.54l-0.13,96.77l0.27,0c0.64,0 1.69,-0.35 2.15,-0.54c32.21,-10.74 41.07,-54.33 41.47,-74.76l0,-7.38c0,-1.07 -1.17,-1.71 -1.74,-1.88c-12.3,-3.71 -37.28,-11.24 -38.79,-11.68l0,0.02l0,-0.02l-0.01,0.01z" fill="url(#paint2_linear_128_61)" fill-opacity="0.21" id="svg_3"/>
   <ellipse cx="50.95" cy="50.32" fill="#E3E2FA" id="svg_4" rx="20" ry="19.86"/>
   <path clip-rule="evenodd" d="m47.33,54.61c-1.53,0.13 -5.37,-0.54 -7.25,-2.15c-2.01,-1.73 -3.09,-4.03 -3.09,-7.38c0,-4.16 3.76,-8.59 8.99,-8.46c4.97,0.12 8.32,2.92 8.99,7.38c0.35,2.33 -0.02,3.44 -0.29,4.31c-0.03,0.13 -0.08,0.27 -0.12,0.39c-0.13,0.45 -0.32,1.43 0,1.74c0.32,0.32 5.23,5.05 7.65,7.38c0.22,0.27 0.67,0.94 0.67,1.48l0,2.55c0,0.4 -0.12,0.54 -0.54,0.54l-5.37,0c-0.32,-0.05 -0.94,-0.35 -0.94,-1.21c0,-0.91 -0.1,-1.04 -0.3,-1.33c-0.03,-0.05 -0.07,-0.08 -0.12,-0.15c-0.27,-0.4 -0.81,-0.4 -1.34,-0.4c-0.54,0 -0.94,-0.13 -1.21,-0.4c-0.27,-0.27 -0.27,-0.67 -0.13,-1.21c0.13,-0.54 0,-1.07 -0.27,-1.21c-0.05,-0.02 -0.08,-0.05 -0.15,-0.08c-0.3,-0.17 -0.75,-0.44 -1.33,-0.32c-0.67,0.13 -1.61,0 -2.15,-0.54c-0.54,-0.54 -1.21,-0.97 -1.74,-0.94l0.02,0.02l0,-0.02l0.02,0.01zm-3.62,-10.2c1.12,0 2.01,-0.91 2.01,-2.01c0,-1.12 -0.91,-2.01 -2.01,-2.01c-1.12,0 -2.01,0.91 -2.01,2.01c0,1.12 0.91,2.01 2.01,2.01z" fill="url(#paint3_linear_128_61)" fill-rule="evenodd" id="svg_5"/>
  </g>
 </g>
</svg>